<?xml version="1.0" encoding="utf-8"?>
<!-- Generator: Adobe Illustrator 21.0.2, SVG Export Plug-In . SVG Version: 6.00 Build 0)  -->
<svg version="1.1" id="Layer_1" xmlns="http://www.w3.org/2000/svg" xmlns:xlink="http://www.w3.org/1999/xlink" x="0px" y="0px"
	 viewBox="0 0 26 36" style="enable-background:new 0 0 26 36;" xml:space="preserve">
<style type="text/css">
	.st0{fill:#444444;}
</style>
<g>
	<path class="st0" d="M13.3,8c5.6,0.2,10.1,5,9.8,10.6c-0.3,5.4-4.9,9.7-10.3,9.5C7.1,27.9,2.6,23,3,17.5C3.3,12.1,7.9,7.8,13.3,8z
		 M12.9,10.1c-4.3,0.1-7.9,3.8-7.8,8.1s3.8,7.9,8.1,7.8s7.9-3.8,7.8-8.1C20.8,13.6,17.1,10,12.9,10.1z"/>
	<path class="st0" d="M12.4,18.8c0-2.6,0-4.6,0-6.7c0.3,0,0.6-0.1,0.9-0.1c0.3,1.7,0.6,3.4,1,5.3c1.3,0.3,2.7,0.5,4.1,0.8
		c0,0.2,0,0.4-0.1,0.6C16.4,18.8,14.5,18.8,12.4,18.8z"/>
</g>
</svg>
